<svg width="487" height="112" viewBox="0 0 487 112" fill="none" xmlns="http://www.w3.org/2000/svg">
<path d="M1 48L12 49L14.5 48L15 47H20L21 48H37L38 47H42L43 48L45 48.5L46 47H47L48 46.5L48.5 46H49V40H51L52 39H54L56 41H58L59 40.5L63 40L63.5 41H66L68 39H74L75 40H77L80 38H86L87 36.5L89 34L90 35H92L93 34H102L105 32L106 33H108.5L113 29H114L115 31L116 32H117L118 31H119L120 32L121 33H132H133L134 32L135 33L136.5 34L141 30H148L149 29.5V25L150 24H151L152 25H154L155 26H158V27H161L162 28H163.5V26L165 25H166L170 28H171L172 27L173 26.5L177.5 30L179.5 29H185L186 30V31L187 32L188 31L189 30H190L192 32H193L194.5 31L196.5 30H198L199 29H203L205 26L206 25L207 26H211L213.5 24.5L214 24L218 28H221L222 27.5L223 27L224 28H225L226 29L227 30H234.5L235.5 31H236.5L237 30H242V27L243 26H246V25L247 24.5L248 24L249 25L251 24L255 26H259.5L261 25.5L263.5 25L264 23H268.5L270 22H271L272 23.5L273 24.5L274 23L277 21H279.5L281 22H286V21H289L290 22H293.5L294.5 21H297L297.5 22H300L301 21H303L305 23H306L307 22H310L310.5 23H311L311.5 22H316L318 25H319L320 24L324 22H327.5L328 23.5L330 25L333 25.5L337.5 25L339.5 24L341 23V21L345.5 20.5L346.5 20H348.5V21L350 20.5L352 19.5V21.1932C352.167 21.6288 352.6 22.5 353 22.5C353.4 22.5 354.167 22.8333 354.5 23L356 23.5L357.5 23L363 21.5L364.5 18.5L366.5 20L368.5 19.5L369.5 17.5L370.5 15V14.5L371.5 17L372 17.5L374 17V16.5L373.5 16C373.5 15.6667 373.5 14.9 373.5 14.5C373.5 14 373 13 373.5 13C374 13 374.488 14 374.744 14.5C374.949 14.9 376 14.6667 376.5 14.5L378 13L378.5 12.5L381 12V7H382.5L383 6H384V3.5L385 1H386.5L389 4L391.5 2H393L394 4H395V2.5L396 2L397 2.5L397.5 4L398 92L399 93.5V109.5L403.5 109L406 107L407.5 108H412.5L413 107H416L416.5 108H419L420 109L421 110L428.5 109.5L429 47.5L433.5 47L442 43C442.333 42.8333 443 42.6 443 43C443 43.4 443 45.8333 443 47C443.5 47 444.6 47 445 47C445.4 47 445.5 47.6667 445.5 48H449V49H452L453 50H454L454.5 52H459L460 51H463.5L464.5 50H466L467 51L468 52.5H468.393H469.5L471 52L473 51L474.5 50.5L475 49V36.5L478.5 36L479 35V30L481 29H485.5L486 28" stroke="#99CAF4" stroke-width="2"/>
<circle cx="365.5" cy="17.5" r="11.5" fill="white"/>
<circle cx="366" cy="18" r="8" fill="#7FBCF0"/>
</svg>
